<svg xmlns="http://www.w3.org/2000/svg" width="128" height="128" viewBox="0 0 256 256"><defs><style>.cls-1{fill:#fff}</style></defs><g id="icons_without_caption" data-name="icons without caption"><g id="CALCULATOR"><path class="cls-1" d="M169.67 201.83H86.33a18.48 18.48 0 0 1-18.46-18.46V72.63a18.48 18.48 0 0 1 18.46-18.46h83.34a18.48 18.48 0 0 1 18.46 18.46v110.74a18.48 18.48 0 0 1-18.46 18.46zM86.33 58.17a14.47 14.47 0 0 0-14.46 14.46v110.74a14.47 14.47 0 0 0 14.46 14.46h83.34a14.48 14.48 0 0 0 14.46-14.46V72.63a14.47 14.47 0 0 0-14.46-14.46z"/><path class="cls-1" d="M97.16 148.06a12 12 0 1 1 12-12 12 12 0 0 1-12 12zm0-19.91a8 8 0 1 0 8 8 8 8 0 0 0-8-8zM128.86 148.06a12 12 0 1 1 12-12 12 12 0 0 1-12 12zm0-19.91a8 8 0 1 0 8 8 8 8 0 0 0-8-8zM97.16 181.29a12 12 0 1 1 12-12 12 12 0 0 1-12 12zm0-19.91a8 8 0 1 0 8 8 8 8 0 0 0-8-8.01zM128.86 181.29a12 12 0 1 1 12-12 12 12 0 0 1-12 12zm0-19.91a8 8 0 1 0 8 8 8 8 0 0 0-8-8.01zM160.56 148.06a12 12 0 1 1 12-12 12 12 0 0 1-12 12zm0-19.91a8 8 0 1 0 8 8 8 8 0 0 0-8-8zM160.56 181.29a12 12 0 1 1 12-12 12 12 0 0 1-12 12zm0-19.91a8 8 0 1 0 8 8 8 8 0 0 0-8-8.01zM172.52 105.89H85.2V73.34h87.32zm-83.32-4h79.32V77.34H89.2z"/></g></g></svg>
