    <svg xmlns="http://www.w3.org/2000/svg" viewBox="0 0 32.623 32.605">
      <path d="M15.612 0c-.36.003-.705.01-1.03.021C8.657.223 5.742 1.123 3.4 3.472.714 6.166-.145 9.758.019 17.607c.137 6.52.965 9.271 3.542 11.768 1.31 1.269 2.658 2 4.73 2.57.846.232 2.73.547 3.56.596.36.021 2.336.048 4.392.06 3.162.018 4.031-.016 5.63-.221 3.915-.504 6.43-1.778 8.234-4.173 1.806-2.396 2.514-5.731 2.516-11.846.001-4.407-.42-7.59-1.278-9.643-1.463-3.501-4.183-5.53-8.394-6.258-1.634-.283-4.823-.475-7.339-.46z" fill="currentColor"/>
      <path d="M16.202 13.758c-.056 0-.11 0-.16.003-.926.031-1.38.172-1.747.538-.42.421-.553.982-.528 2.208.022 1.018.151 1.447.553 1.837.205.198.415.313.739.402.132.036.426.085.556.093.056.003.365.007.686.009.494.003.63-.002.879-.035.611-.078 1.004-.277 1.286-.651.282-.374.392-.895.393-1.85 0-.688-.066-1.185-.2-1.506-.228-.547-.653-.864-1.31-.977a7.91 7.91 0 00-1.147-.072z" fill="#00dace"/>
    </svg>
