<svg
  class="w-6 h-6 inline-block"
  viewBox="0 0 30 33"
  fill="none"
  stroke="currentColor"
  xmlns="http://www.w3.org/2000/svg"
>
  <g clip-path="url(#clip0)">
    <path
      stroke-linecap="round"
      stroke-linejoin="round"
      stroke-width="2"
      d="M23.0318 0.768805C25.8696 0.224286 28.2343 2.94735 27.288 5.67004L25.5371 10.7076C25.0134 12.2144 23.5896 13.2249 21.9903 13.2249H15.3753L14.743 16.1911C16.0949 16.4776 17.4237 15.6171 17.7111 14.2691C17.7869 13.9132 17.7826 13.5589 17.7103 13.2249H20.2418C20.2958 13.734 20.2714 14.2601 20.1589 14.7879C19.5842 17.4839 16.9265 19.2049 14.2227 18.6319L12.2825 27.7332C11.8515 29.7552 9.85817 31.046 7.83031 30.6162L6.60639 30.3568C4.57853 29.927 3.28404 27.9394 3.71508 25.9174L6.42074 13.2249H6.2538C4.18063 13.2249 2.5 11.5491 2.5 9.48189V7.79982C2.5 6.00536 3.77722 4.46337 5.54445 4.12427L23.0318 0.768805ZM24.9234 4.85292C25.2389 3.94536 24.4507 3.03766 23.5047 3.21917L6.01735 6.57464C5.42827 6.68767 5.00253 7.20167 5.00253 7.79982V9.48189C5.00253 10.171 5.56274 10.7296 6.2538 10.7296H21.9903C22.5234 10.7296 22.998 10.3927 23.1725 9.89046L24.9234 4.85292ZM12.7841 13.2249H8.97918L6.16292 26.4362C6.01925 27.1102 6.45074 27.7727 7.12669 27.916L8.35062 28.1754C9.02657 28.3186 9.69101 27.8884 9.83469 27.2144L12.8154 13.2315L12.7841 13.2249Z"
    />
  </g>

  <defs>
    <clipPath id="clip0">
      <rect width="30" height="30" transform="translate(0 0.69873)" />
    </clipPath>
  </defs>
</svg>
